<svg width="130" height="203" viewBox="0 0 130 203" fill="none" xmlns="http://www.w3.org/2000/svg">
<rect width="130" height="203" rx="10" fill="#2638DB"/>
<rect x="8" y="12" width="114" height="178" rx="10" fill="#5A9AF7"/>
<path d="M67.125 68.875C53.4587 68.875 42.4387 79.5687 41.75 93.0175L34.79 102.189C33.92 103.312 34.79 105.125 36.3125 105.125H41.75V116C41.75 120.024 44.9762 123.25 49 123.25H52.625V134.125H78V117.124C86.5912 113.064 92.5 104.4 92.5 94.25C92.5 80.2575 81.19 68.875 67.125 68.875ZM81.8425 92.6912L74.7375 94.5763L79.9575 99.8325C80.5662 100.444 80.908 101.272 80.908 102.134C80.908 102.997 80.5662 103.825 79.9575 104.436C79.346 105.045 78.5184 105.387 77.6556 105.387C76.7928 105.387 75.9651 105.045 75.3537 104.436L70.0612 99.2162L68.2125 106.321C67.7775 108.097 65.965 109.112 64.2612 108.641C63.845 108.535 63.4542 108.347 63.1114 108.088C62.7687 107.83 62.4809 107.505 62.265 107.134C62.049 106.763 61.9091 106.352 61.8535 105.926C61.798 105.501 61.8278 105.068 61.9412 104.654L63.8625 97.5125L56.7212 99.4338C56.307 99.5498 55.8737 99.5815 55.447 99.527C55.0203 99.4726 54.6088 99.3331 54.237 99.1167C53.8652 98.9004 53.5405 98.6117 53.2823 98.2676C53.0241 97.9236 52.8375 97.5312 52.7337 97.1138C52.2625 95.41 53.2775 93.5975 55.0537 93.1625L62.1587 91.3137L56.9387 86.0212C56.3933 85.3984 56.1052 84.5915 56.1326 83.764C56.16 82.9366 56.501 82.1506 57.0864 81.5652C57.6718 80.9798 58.4578 80.6388 59.2852 80.6114C60.1127 80.584 60.9196 80.8721 61.5425 81.4175L66.7987 86.6375L68.6837 79.5325C68.7854 79.1251 68.9664 78.7417 69.2166 78.4045C69.4667 78.0672 69.781 77.7826 70.1413 77.5671C70.5017 77.3516 70.9011 77.2093 71.3165 77.1484C71.732 77.0876 72.1554 77.1093 72.5625 77.2125C74.375 77.6838 75.39 79.46 74.955 81.2362L73.0337 88.3412L80.1387 86.42C80.56 86.3113 80.9987 86.2871 81.4295 86.3487C81.8602 86.4102 82.2745 86.5564 82.6485 86.7788C83.0225 87.0012 83.3488 87.2954 83.6087 87.6444C83.8685 87.9934 84.0567 88.3904 84.1625 88.8125C84.2656 89.2195 84.2874 89.6429 84.2265 90.0584C84.1657 90.4739 84.0234 90.8733 83.8079 91.2336C83.5923 91.594 83.3078 91.9082 82.9705 92.1584C82.6332 92.4085 82.2499 92.5896 81.8425 92.6912Z" fill="black"/>
<path d="M17.7614 31V16.4545H26.5398V18.017H19.5227V22.9318H26.0852V24.4943H19.5227V29.4375H26.6534V31H17.7614ZM37.2145 22.5341L35.7088 22.9602C35.6141 22.7093 35.4744 22.4654 35.2898 22.2287C35.1098 21.9872 34.8636 21.7884 34.5511 21.6321C34.2386 21.4759 33.8385 21.3977 33.3509 21.3977C32.6832 21.3977 32.1269 21.5516 31.6818 21.8594C31.2415 22.1624 31.0213 22.5483 31.0213 23.017C31.0213 23.4337 31.1728 23.7628 31.4759 24.0043C31.7789 24.2457 32.2524 24.447 32.8963 24.608L34.5156 25.0057C35.491 25.2424 36.2178 25.6046 36.696 26.0923C37.1742 26.5753 37.4134 27.1979 37.4134 27.9602C37.4134 28.5852 37.2334 29.1439 36.8736 29.6364C36.5185 30.1288 36.0213 30.517 35.3821 30.8011C34.7429 31.0852 33.9995 31.2273 33.152 31.2273C32.0393 31.2273 31.1184 30.9858 30.3892 30.5028C29.66 30.0199 29.1984 29.3144 29.0043 28.3864L30.5952 27.9886C30.7467 28.5758 31.0331 29.0161 31.4545 29.3097C31.8807 29.6032 32.437 29.75 33.1236 29.75C33.9048 29.75 34.5251 29.5843 34.9844 29.2528C35.4484 28.9167 35.6804 28.5142 35.6804 28.0455C35.6804 27.6667 35.5478 27.3494 35.2827 27.0938C35.0175 26.8333 34.6103 26.6392 34.0611 26.5114L32.2429 26.0852C31.2438 25.8485 30.5099 25.4815 30.0412 24.9844C29.5772 24.4825 29.3452 23.8551 29.3452 23.1023C29.3452 22.4867 29.518 21.9422 29.8636 21.4688C30.214 20.9953 30.6899 20.6236 31.2912 20.3537C31.8973 20.0838 32.5838 19.9489 33.3509 19.9489C34.4304 19.9489 35.2779 20.1856 35.8935 20.6591C36.5137 21.1326 36.9541 21.7576 37.2145 22.5341ZM44.6808 20.0909V21.5114H39.0273V20.0909H44.6808ZM40.6751 17.4773H42.3512V27.875C42.3512 28.3485 42.4199 28.7036 42.5572 28.9403C42.6992 29.1723 42.8791 29.3286 43.0969 29.4091C43.3195 29.4848 43.5539 29.5227 43.8001 29.5227C43.9847 29.5227 44.1362 29.5133 44.2546 29.4943C44.373 29.4706 44.4677 29.4517 44.5387 29.4375L44.8796 30.9432C44.766 30.9858 44.6074 31.0284 44.4038 31.071C44.2002 31.1184 43.9421 31.142 43.6296 31.142C43.1561 31.142 42.6921 31.0402 42.2376 30.8366C41.7878 30.633 41.4137 30.3229 41.1154 29.9062C40.8219 29.4896 40.6751 28.964 40.6751 28.3295V17.4773ZM47.2021 31V20.0909H48.8214V21.7386H48.935C49.1339 21.1989 49.4937 20.7609 50.0146 20.4247C50.5354 20.0885 51.1225 19.9205 51.7759 19.9205C51.899 19.9205 52.0529 19.9228 52.2376 19.9276C52.4222 19.9323 52.5619 19.9394 52.6566 19.9489V21.6534C52.5998 21.6392 52.4696 21.6179 52.266 21.5895C52.0671 21.5563 51.8564 21.5398 51.6339 21.5398C51.1036 21.5398 50.6301 21.651 50.2134 21.8736C49.8015 22.0914 49.4748 22.3944 49.2333 22.7827C48.9966 23.1662 48.8782 23.6042 48.8782 24.0966V31H47.2021ZM57.8537 31.2557C57.1624 31.2557 56.535 31.1255 55.9716 30.8651C55.4081 30.5999 54.9607 30.2188 54.6293 29.7216C54.2978 29.2197 54.1321 28.6136 54.1321 27.9034C54.1321 27.2784 54.2552 26.7718 54.5014 26.3835C54.7476 25.9905 55.0767 25.6828 55.4886 25.4602C55.9006 25.2377 56.3551 25.072 56.8523 24.9631C57.3542 24.8494 57.8584 24.7595 58.3651 24.6932C59.0279 24.608 59.5653 24.544 59.9773 24.5014C60.3939 24.4541 60.697 24.3759 60.8864 24.267C61.0805 24.1581 61.1776 23.9687 61.1776 23.6989V23.642C61.1776 22.9413 60.9858 22.3968 60.6023 22.0085C60.2235 21.6203 59.6482 21.4261 58.8764 21.4261C58.0762 21.4261 57.4489 21.6013 56.9943 21.9517C56.5398 22.3021 56.2202 22.6761 56.0355 23.0739L54.4446 22.5057C54.7287 21.8428 55.1075 21.3267 55.581 20.9574C56.0592 20.5833 56.58 20.3229 57.1435 20.1761C57.7116 20.0246 58.2704 19.9489 58.8196 19.9489C59.17 19.9489 59.5724 19.9915 60.027 20.0767C60.4863 20.1572 60.929 20.3253 61.3551 20.581C61.786 20.8366 62.1435 21.2225 62.4276 21.7386C62.7116 22.2547 62.8537 22.946 62.8537 23.8125V31H61.1776V29.5227H61.0923C60.9787 29.7595 60.7893 30.0128 60.5241 30.2827C60.259 30.5526 59.9063 30.7822 59.4659 30.9716C59.0256 31.161 58.4882 31.2557 57.8537 31.2557ZM58.1094 29.75C58.7723 29.75 59.331 29.6198 59.7855 29.3594C60.2448 29.099 60.5904 28.7628 60.8224 28.3509C61.0592 27.9389 61.1776 27.5057 61.1776 27.0511V25.517C61.1065 25.6023 60.9503 25.6804 60.7088 25.7514C60.4721 25.8177 60.1974 25.8769 59.8849 25.929C59.5772 25.9763 59.2765 26.0189 58.983 26.0568C58.6941 26.09 58.4598 26.1184 58.2798 26.142C57.8442 26.1989 57.437 26.2912 57.0582 26.419C56.6842 26.5421 56.3812 26.7292 56.1491 26.9801C55.9219 27.2263 55.8082 27.5625 55.8082 27.9886C55.8082 28.571 56.0237 29.0114 56.4545 29.3097C56.8902 29.6032 57.4418 29.75 58.1094 29.75ZM70.6573 20.0909V21.5114H65.0039V20.0909H70.6573ZM66.6516 17.4773H68.3278V27.875C68.3278 28.3485 68.3964 28.7036 68.5337 28.9403C68.6758 29.1723 68.8557 29.3286 69.0735 29.4091C69.296 29.4848 69.5304 29.5227 69.7766 29.5227C69.9613 29.5227 70.1128 29.5133 70.2312 29.4943C70.3496 29.4706 70.4442 29.4517 70.5153 29.4375L70.8562 30.9432C70.7425 30.9858 70.5839 31.0284 70.3803 31.071C70.1767 31.1184 69.9187 31.142 69.6062 31.142C69.1327 31.142 68.6687 31.0402 68.2141 30.8366C67.7643 30.633 67.3903 30.3229 67.092 29.9062C66.7984 29.4896 66.6516 28.964 66.6516 28.3295V17.4773ZM77.6353 31.2273C76.5842 31.2273 75.6774 30.9953 74.9151 30.5312C74.1576 30.0625 73.5728 29.4091 73.1609 28.571C72.7537 27.7282 72.5501 26.7481 72.5501 25.6307C72.5501 24.5133 72.7537 23.5284 73.1609 22.6761C73.5728 21.8191 74.1457 21.1515 74.8796 20.6733C75.6183 20.1903 76.48 19.9489 77.4648 19.9489C78.033 19.9489 78.5941 20.0436 79.1481 20.233C79.7021 20.4223 80.2063 20.7301 80.6609 21.1562C81.1154 21.5777 81.4776 22.1364 81.7475 22.8324C82.0174 23.5284 82.1523 24.3854 82.1523 25.4034V26.1136H73.7433V24.6648H80.4478C80.4478 24.0492 80.3247 23.5 80.0785 23.017C79.837 22.5341 79.4914 22.1529 79.0415 21.8736C78.5965 21.5942 78.0709 21.4545 77.4648 21.4545C76.7972 21.4545 76.2196 21.6203 75.7319 21.9517C75.2489 22.2784 74.8772 22.7045 74.6168 23.2301C74.3564 23.7557 74.2262 24.3191 74.2262 24.9205V25.8864C74.2262 26.7102 74.3683 27.4086 74.6523 27.9815C74.9412 28.5497 75.3413 28.983 75.8526 29.2812C76.364 29.5748 76.9582 29.7216 77.6353 29.7216C78.0756 29.7216 78.4734 29.66 78.8285 29.5369C79.1883 29.4091 79.4985 29.2197 79.7589 28.9688C80.0193 28.7131 80.2205 28.3958 80.3626 28.017L81.9819 28.4716C81.8114 29.0208 81.525 29.5038 81.1225 29.9205C80.7201 30.3324 80.2229 30.6544 79.631 30.8864C79.0392 31.1136 78.3739 31.2273 77.6353 31.2273ZM76.6126 18.6136L78.3455 15.3182H80.3058L78.0898 18.6136H76.6126ZM89.1055 35.3182C88.2958 35.3182 87.5998 35.214 87.0174 35.0057C86.435 34.8021 85.9497 34.5322 85.5614 34.196C85.1779 33.8646 84.8725 33.5095 84.6452 33.1307L85.9805 32.1932C86.132 32.392 86.3237 32.6193 86.5558 32.875C86.7878 33.1354 87.105 33.3603 87.5075 33.5497C87.9147 33.7438 88.4473 33.8409 89.1055 33.8409C89.9862 33.8409 90.713 33.6278 91.2859 33.2017C91.8588 32.7756 92.1452 32.108 92.1452 31.1989V28.983H92.0032C91.8801 29.1818 91.7049 29.428 91.4776 29.7216C91.2551 30.0104 90.9331 30.2685 90.5117 30.4957C90.0951 30.7183 89.5316 30.8295 88.8214 30.8295C87.9407 30.8295 87.15 30.6212 86.4492 30.2045C85.7532 29.7879 85.2016 29.1818 84.7944 28.3864C84.3919 27.5909 84.1907 26.625 84.1907 25.4886C84.1907 24.3712 84.3872 23.3982 84.7802 22.5696C85.1732 21.7363 85.7201 21.0923 86.4208 20.6378C87.1216 20.1785 87.9312 19.9489 88.8498 19.9489C89.56 19.9489 90.1235 20.0672 90.5401 20.304C90.9615 20.536 91.2835 20.8011 91.506 21.0994C91.7333 21.393 91.9085 21.6345 92.0316 21.8239H92.2021V20.0909H93.8214V31.3125C93.8214 32.25 93.6083 33.0123 93.1822 33.5994C92.7608 34.1913 92.1926 34.6245 91.4776 34.8991C90.7674 35.1785 89.9767 35.3182 89.1055 35.3182ZM89.0487 29.3239C89.721 29.3239 90.2892 29.17 90.7532 28.8622C91.2172 28.5545 91.57 28.1117 91.8114 27.5341C92.0529 26.9564 92.1737 26.2652 92.1737 25.4602C92.1737 24.6742 92.0553 23.9806 91.8185 23.3793C91.5818 22.7779 91.2314 22.3068 90.7674 21.9659C90.3034 21.625 89.7305 21.4545 89.0487 21.4545C88.3384 21.4545 87.7466 21.6345 87.2731 21.9943C86.8043 22.3542 86.4516 22.8371 86.2148 23.4432C85.9828 24.0492 85.8668 24.7216 85.8668 25.4602C85.8668 26.2178 85.9852 26.8878 86.2219 27.4702C86.4634 28.0478 86.8185 28.5024 87.2873 28.8338C87.7608 29.1605 88.3479 29.3239 89.0487 29.3239ZM96.8896 31V20.0909H98.5657V31H96.8896ZM97.7418 18.2727C97.4151 18.2727 97.1334 18.1615 96.8967 17.9389C96.6647 17.7164 96.5487 17.4489 96.5487 17.1364C96.5487 16.8239 96.6647 16.5563 96.8967 16.3338C97.1334 16.1113 97.4151 16 97.7418 16C98.0685 16 98.3479 16.1113 98.5799 16.3338C98.8166 16.5563 98.935 16.8239 98.935 17.1364C98.935 17.4489 98.8166 17.7164 98.5799 17.9389C98.3479 18.1615 98.0685 18.2727 97.7418 18.2727ZM104.846 31.2557C104.155 31.2557 103.527 31.1255 102.964 30.8651C102.4 30.5999 101.953 30.2188 101.621 29.7216C101.29 29.2197 101.124 28.6136 101.124 27.9034C101.124 27.2784 101.247 26.7718 101.494 26.3835C101.74 25.9905 102.069 25.6828 102.481 25.4602C102.893 25.2377 103.347 25.072 103.844 24.9631C104.346 24.8494 104.851 24.7595 105.357 24.6932C106.02 24.608 106.558 24.544 106.969 24.5014C107.386 24.4541 107.689 24.3759 107.879 24.267C108.073 24.1581 108.17 23.9687 108.17 23.6989V23.642C108.17 22.9413 107.978 22.3968 107.594 22.0085C107.216 21.6203 106.64 21.4261 105.869 21.4261C105.068 21.4261 104.441 21.6013 103.987 21.9517C103.532 22.3021 103.212 22.6761 103.028 23.0739L101.437 22.5057C101.721 21.8428 102.1 21.3267 102.573 20.9574C103.051 20.5833 103.572 20.3229 104.136 20.1761C104.704 20.0246 105.263 19.9489 105.812 19.9489C106.162 19.9489 106.565 19.9915 107.019 20.0767C107.478 20.1572 107.921 20.3253 108.347 20.581C108.778 20.8366 109.136 21.2225 109.42 21.7386C109.704 22.2547 109.846 22.946 109.846 23.8125V31H108.17V29.5227H108.085C107.971 29.7595 107.781 30.0128 107.516 30.2827C107.251 30.5526 106.898 30.7822 106.458 30.9716C106.018 31.161 105.48 31.2557 104.846 31.2557ZM105.102 29.75C105.764 29.75 106.323 29.6198 106.778 29.3594C107.237 29.099 107.583 28.7628 107.815 28.3509C108.051 27.9389 108.17 27.5057 108.17 27.0511V25.517C108.099 25.6023 107.942 25.6804 107.701 25.7514C107.464 25.8177 107.19 25.8769 106.877 25.929C106.569 25.9763 106.269 26.0189 105.975 26.0568C105.686 26.09 105.452 26.1184 105.272 26.142C104.836 26.1989 104.429 26.2912 104.05 26.419C103.676 26.5421 103.373 26.7292 103.141 26.9801C102.914 27.2263 102.8 27.5625 102.8 27.9886C102.8 28.571 103.016 29.0114 103.447 29.3097C103.882 29.6032 104.434 29.75 105.102 29.75Z" fill="white"/>
<rect x="25" y="145" width="80" height="34" rx="10" fill="black"/>
<path d="M41.358 154.455L45.6761 166.699H45.8466L50.1648 154.455H52.0114L46.6705 169H44.8523L39.5114 154.455H41.358ZM57.4659 169.227C56.4811 169.227 55.617 168.993 54.8736 168.524C54.1349 168.055 53.5573 167.4 53.1406 166.557C52.7287 165.714 52.5227 164.729 52.5227 163.602C52.5227 162.466 52.7287 161.474 53.1406 160.626C53.5573 159.779 54.1349 159.121 54.8736 158.652C55.617 158.183 56.4811 157.949 57.4659 157.949C58.4508 157.949 59.3125 158.183 60.0511 158.652C60.7945 159.121 61.3722 159.779 61.7841 160.626C62.2008 161.474 62.4091 162.466 62.4091 163.602C62.4091 164.729 62.2008 165.714 61.7841 166.557C61.3722 167.4 60.7945 168.055 60.0511 168.524C59.3125 168.993 58.4508 169.227 57.4659 169.227ZM57.4659 167.722C58.214 167.722 58.8295 167.53 59.3125 167.146C59.7955 166.763 60.1529 166.259 60.3849 165.634C60.617 165.009 60.733 164.331 60.733 163.602C60.733 162.873 60.617 162.194 60.3849 161.564C60.1529 160.934 59.7955 160.425 59.3125 160.037C58.8295 159.649 58.214 159.455 57.4659 159.455C56.7178 159.455 56.1023 159.649 55.6193 160.037C55.1364 160.425 54.7789 160.934 54.5469 161.564C54.3149 162.194 54.1989 162.873 54.1989 163.602C54.1989 164.331 54.3149 165.009 54.5469 165.634C54.7789 166.259 55.1364 166.763 55.6193 167.146C56.1023 167.53 56.7178 167.722 57.4659 167.722ZM69.712 158.091V159.511H64.0586V158.091H69.712ZM65.7063 155.477H67.3825V165.875C67.3825 166.348 67.4511 166.704 67.5884 166.94C67.7305 167.172 67.9104 167.329 68.1282 167.409C68.3507 167.485 68.5851 167.523 68.8313 167.523C69.016 167.523 69.1675 167.513 69.2859 167.494C69.4042 167.471 69.4989 167.452 69.57 167.438L69.9109 168.943C69.7972 168.986 69.6386 169.028 69.435 169.071C69.2314 169.118 68.9734 169.142 68.6609 169.142C68.1874 169.142 67.7234 169.04 67.2688 168.837C66.819 168.633 66.445 168.323 66.1467 167.906C65.8531 167.49 65.7063 166.964 65.7063 166.33V155.477ZM75.4435 169.256C74.7522 169.256 74.1249 169.125 73.5614 168.865C72.998 168.6 72.5505 168.219 72.2191 167.722C71.8877 167.22 71.7219 166.614 71.7219 165.903C71.7219 165.278 71.8451 164.772 72.0913 164.384C72.3375 163.991 72.6665 163.683 73.0785 163.46C73.4904 163.238 73.945 163.072 74.4421 162.963C74.944 162.849 75.4483 162.759 75.9549 162.693C76.6178 162.608 77.1552 162.544 77.5671 162.501C77.9838 162.454 78.2868 162.376 78.4762 162.267C78.6703 162.158 78.7674 161.969 78.7674 161.699V161.642C78.7674 160.941 78.5756 160.397 78.1921 160.009C77.8133 159.62 77.238 159.426 76.4663 159.426C75.6661 159.426 75.0387 159.601 74.5842 159.952C74.1296 160.302 73.81 160.676 73.6254 161.074L72.0344 160.506C72.3185 159.843 72.6973 159.327 73.1708 158.957C73.649 158.583 74.1699 158.323 74.7333 158.176C75.3015 158.025 75.8602 157.949 76.4094 157.949C76.7598 157.949 77.1623 157.991 77.6168 158.077C78.0761 158.157 78.5188 158.325 78.945 158.581C79.3758 158.837 79.7333 159.223 80.0174 159.739C80.3015 160.255 80.4435 160.946 80.4435 161.812V169H78.7674V167.523H78.6822C78.5685 167.759 78.3791 168.013 78.114 168.283C77.8488 168.553 77.4961 168.782 77.0558 168.972C76.6154 169.161 76.078 169.256 75.4435 169.256ZM75.6992 167.75C76.3621 167.75 76.9208 167.62 77.3754 167.359C77.8346 167.099 78.1803 166.763 78.4123 166.351C78.649 165.939 78.7674 165.506 78.7674 165.051V163.517C78.6964 163.602 78.5401 163.68 78.2987 163.751C78.0619 163.818 77.7873 163.877 77.4748 163.929C77.167 163.976 76.8664 164.019 76.5728 164.057C76.284 164.09 76.0496 164.118 75.8697 164.142C75.4341 164.199 75.0269 164.291 74.6481 164.419C74.274 164.542 73.971 164.729 73.739 164.98C73.5117 165.226 73.3981 165.562 73.3981 165.989C73.3981 166.571 73.6135 167.011 74.0444 167.31C74.48 167.603 75.0316 167.75 75.6992 167.75ZM83.5028 169V158.091H85.1222V159.739H85.2358C85.4347 159.199 85.7945 158.761 86.3153 158.425C86.8362 158.089 87.4233 157.92 88.0767 157.92C88.1998 157.92 88.3537 157.923 88.5384 157.928C88.723 157.932 88.8627 157.939 88.9574 157.949V159.653C88.9006 159.639 88.7704 159.618 88.5668 159.589C88.3679 159.556 88.1572 159.54 87.9347 159.54C87.4044 159.54 86.9309 159.651 86.5142 159.874C86.1023 160.091 85.7756 160.394 85.5341 160.783C85.2973 161.166 85.179 161.604 85.179 162.097V169H83.5028Z" fill="white"/>
</svg>
