<svg width="130" height="203" viewBox="0 0 130 203" fill="none" xmlns="http://www.w3.org/2000/svg">
<rect width="130" height="203" rx="10" fill="#2638DB"/>
<rect x="8" y="12" width="114" height="178" rx="10" fill="#5A9AF7"/>
<path d="M25.7159 21.0909C25.6307 20.3712 25.285 19.8125 24.679 19.4148C24.0729 19.017 23.3295 18.8182 22.4489 18.8182C21.8049 18.8182 21.2415 18.9223 20.7585 19.1307C20.2803 19.339 19.9063 19.6255 19.6364 19.9901C19.3712 20.3546 19.2386 20.7689 19.2386 21.233C19.2386 21.6212 19.331 21.955 19.5156 22.2344C19.705 22.509 19.9465 22.7386 20.2401 22.9233C20.5336 23.1032 20.8414 23.2524 21.1634 23.3707C21.4853 23.4844 21.7812 23.5767 22.0511 23.6477L23.5284 24.0455C23.9072 24.1449 24.3286 24.2822 24.7926 24.4574C25.2614 24.6326 25.7088 24.8717 26.1349 25.1747C26.5658 25.473 26.9209 25.8565 27.2003 26.3253C27.4796 26.794 27.6193 27.3693 27.6193 28.0511C27.6193 28.8371 27.4134 29.5473 27.0014 30.1818C26.5942 30.8163 25.9976 31.3205 25.2116 31.6946C24.4304 32.0687 23.4811 32.2557 22.3636 32.2557C21.322 32.2557 20.42 32.0876 19.6577 31.7514C18.9001 31.4152 18.3035 30.9465 17.8679 30.3452C17.437 29.7438 17.1932 29.0455 17.1364 28.25H18.9545C19.0019 28.7992 19.1866 29.2538 19.5085 29.6136C19.8352 29.9687 20.2472 30.2339 20.7443 30.4091C21.2462 30.5795 21.786 30.6648 22.3636 30.6648C23.036 30.6648 23.6397 30.5559 24.1747 30.3381C24.7098 30.1155 25.1335 29.8078 25.446 29.4148C25.7585 29.017 25.9148 28.553 25.9148 28.0227C25.9148 27.5398 25.7798 27.1468 25.5099 26.8438C25.2401 26.5407 24.8849 26.2945 24.4446 26.1051C24.0043 25.9157 23.5284 25.75 23.017 25.608L21.2273 25.0966C20.0909 24.7699 19.1913 24.3035 18.5284 23.6974C17.8655 23.0914 17.5341 22.2983 17.5341 21.3182C17.5341 20.5038 17.7543 19.7936 18.1946 19.1875C18.6397 18.5767 19.2363 18.1032 19.9844 17.767C20.7372 17.4261 21.5777 17.2557 22.5057 17.2557C23.4432 17.2557 24.2765 17.4238 25.0057 17.7599C25.7348 18.0914 26.3125 18.5459 26.7386 19.1236C27.1695 19.7012 27.3968 20.357 27.4205 21.0909H25.7159ZM30.288 32V21.0909H31.9641V32H30.288ZM31.1403 19.2727C30.8136 19.2727 30.5318 19.1615 30.2951 18.9389C30.0631 18.7164 29.9471 18.4489 29.9471 18.1364C29.9471 17.8239 30.0631 17.5563 30.2951 17.3338C30.5318 17.1113 30.8136 17 31.1403 17C31.467 17 31.7463 17.1113 31.9783 17.3338C32.2151 17.5563 32.3335 17.8239 32.3335 18.1364C32.3335 18.4489 32.2151 18.7164 31.9783 18.9389C31.7463 19.1615 31.467 19.2727 31.1403 19.2727ZM35.0341 32V21.0909H36.6534V22.7955H36.7955C37.0227 22.2131 37.3897 21.7609 37.8963 21.4389C38.4029 21.1122 39.0114 20.9489 39.7216 20.9489C40.4413 20.9489 41.0402 21.1122 41.5185 21.4389C42.0014 21.7609 42.3778 22.2131 42.6477 22.7955H42.7614C43.0407 22.232 43.4598 21.7846 44.0185 21.4531C44.5772 21.117 45.2472 20.9489 46.0284 20.9489C47.0038 20.9489 47.8016 21.2543 48.4219 21.8651C49.0421 22.4711 49.3523 23.4157 49.3523 24.6989V32H47.6761V24.6989C47.6761 23.8939 47.456 23.3187 47.0156 22.973C46.5753 22.6274 46.0568 22.4545 45.4602 22.4545C44.6932 22.4545 44.099 22.6866 43.6776 23.1506C43.2562 23.6098 43.0455 24.1922 43.0455 24.8977V32H41.3409V24.5284C41.3409 23.9081 41.1397 23.4086 40.7372 23.0298C40.3348 22.6463 39.8163 22.4545 39.1818 22.4545C38.7462 22.4545 38.339 22.5705 37.9602 22.8026C37.5862 23.0346 37.2831 23.3565 37.0511 23.7685C36.8239 24.1757 36.7102 24.6468 36.7102 25.1818V32H35.0341ZM59.2919 27.5398V21.0909H60.968V32H59.2919V30.1534H59.1783C58.9226 30.7074 58.5249 31.1785 57.9851 31.5668C57.4453 31.9503 56.7635 32.142 55.9396 32.142C55.2578 32.142 54.6518 31.9929 54.1214 31.6946C53.5911 31.3916 53.1745 30.937 52.8714 30.331C52.5684 29.7202 52.4169 28.9508 52.4169 28.0227V21.0909H54.093V27.9091C54.093 28.7045 54.3156 29.339 54.7607 29.8125C55.2105 30.286 55.7834 30.5227 56.4794 30.5227C56.8961 30.5227 57.3198 30.4162 57.7507 30.2031C58.1863 29.9901 58.5509 29.6634 58.8445 29.223C59.1428 28.7827 59.2919 28.2216 59.2919 27.5398ZM65.7141 17.4545V32H64.038V17.4545H65.7141ZM71.9943 32.2557C71.303 32.2557 70.6757 32.1255 70.1122 31.8651C69.5488 31.5999 69.1013 31.2188 68.7699 30.7216C68.4384 30.2197 68.2727 29.6136 68.2727 28.9034C68.2727 28.2784 68.3958 27.7718 68.642 27.3835C68.8883 26.9905 69.2173 26.6828 69.6293 26.4602C70.0412 26.2377 70.4957 26.072 70.9929 25.9631C71.4948 25.8494 71.9991 25.7595 72.5057 25.6932C73.1686 25.608 73.706 25.544 74.1179 25.5014C74.5346 25.4541 74.8376 25.3759 75.027 25.267C75.2211 25.1581 75.3182 24.9687 75.3182 24.6989V24.642C75.3182 23.9413 75.1264 23.3968 74.7429 23.0085C74.3641 22.6203 73.7888 22.4261 73.017 22.4261C72.2169 22.4261 71.5895 22.6013 71.1349 22.9517C70.6804 23.3021 70.3608 23.6761 70.1761 24.0739L68.5852 23.5057C68.8693 22.8428 69.2481 22.3267 69.7216 21.9574C70.1998 21.5833 70.7206 21.3229 71.2841 21.1761C71.8523 21.0246 72.411 20.9489 72.9602 20.9489C73.3106 20.9489 73.7131 20.9915 74.1676 21.0767C74.6269 21.1572 75.0696 21.3253 75.4957 21.581C75.9266 21.8366 76.2841 22.2225 76.5682 22.7386C76.8523 23.2547 76.9943 23.946 76.9943 24.8125V32H75.3182V30.5227H75.233C75.1193 30.7595 74.9299 31.0128 74.6648 31.2827C74.3996 31.5526 74.0469 31.7822 73.6065 31.9716C73.1662 32.161 72.6288 32.2557 71.9943 32.2557ZM72.25 30.75C72.9129 30.75 73.4716 30.6198 73.9261 30.3594C74.3854 30.099 74.7311 29.7628 74.9631 29.3509C75.1998 28.9389 75.3182 28.5057 75.3182 28.0511V26.517C75.2472 26.6023 75.0909 26.6804 74.8494 26.7514C74.6127 26.8177 74.3381 26.8769 74.0256 26.929C73.7178 26.9763 73.4171 27.0189 73.1236 27.0568C72.8348 27.09 72.6004 27.1184 72.4205 27.142C71.9848 27.1989 71.5777 27.2912 71.1989 27.419C70.8248 27.5421 70.5218 27.7292 70.2898 27.9801C70.0625 28.2263 69.9489 28.5625 69.9489 28.9886C69.9489 29.571 70.1643 30.0114 70.5952 30.3097C71.0308 30.6032 71.5824 30.75 72.25 30.75ZM84.4854 32.2273C83.4627 32.2273 82.582 31.9858 81.8434 31.5028C81.1048 31.0199 80.5366 30.3546 80.1388 29.5071C79.7411 28.6596 79.5423 27.6913 79.5423 26.6023C79.5423 25.4943 79.7459 24.5166 80.1531 23.669C80.565 22.8168 81.1379 22.1515 81.8718 21.6733C82.6104 21.1903 83.4722 20.9489 84.457 20.9489C85.2241 20.9489 85.9154 21.0909 86.5309 21.375C87.1464 21.6591 87.6507 22.0568 88.0437 22.5682C88.4367 23.0795 88.6805 23.6761 88.7752 24.358H87.0991C86.9712 23.8608 86.6871 23.4205 86.2468 23.0369C85.8112 22.6487 85.2241 22.4545 84.4854 22.4545C83.832 22.4545 83.2591 22.625 82.7667 22.9659C82.279 23.3021 81.8978 23.7779 81.6232 24.3935C81.3533 25.0043 81.2184 25.7216 81.2184 26.5455C81.2184 27.3883 81.351 28.1222 81.6161 28.7472C81.886 29.3722 82.2648 29.8575 82.7525 30.2031C83.2449 30.5488 83.8226 30.7216 84.4854 30.7216C84.921 30.7216 85.3164 30.6458 85.6715 30.4943C86.0266 30.3428 86.3273 30.125 86.5735 29.8409C86.8197 29.5568 86.9949 29.2159 87.0991 28.8182H88.7752C88.6805 29.4621 88.4461 30.0421 88.0721 30.5582C87.7028 31.0696 87.2127 31.4768 86.6019 31.7798C85.9959 32.0781 85.2904 32.2273 84.4854 32.2273ZM83.69 31.9432H85.082L84.9684 32.5114C85.3377 32.5682 85.6763 32.7221 85.984 32.973C86.2918 33.2287 86.4457 33.6335 86.4457 34.1875C86.4457 34.7983 86.1924 35.2955 85.6857 35.679C85.1838 36.0672 84.4428 36.2614 83.4627 36.2614L83.4059 35.1534C83.8462 35.1534 84.2108 35.0824 84.4996 34.9403C84.7932 34.803 84.94 34.571 84.94 34.2443C84.94 33.9176 84.8192 33.6951 84.5778 33.5767C84.3363 33.4583 83.9457 33.3778 83.4059 33.3352L83.69 31.9432ZM94.4357 32.2557C93.7444 32.2557 93.1171 32.1255 92.5536 31.8651C91.9902 31.5999 91.5427 31.2188 91.2113 30.7216C90.8799 30.2197 90.7141 29.6136 90.7141 28.9034C90.7141 28.2784 90.8372 27.7718 91.0835 27.3835C91.3297 26.9905 91.6587 26.6828 92.0707 26.4602C92.4826 26.2377 92.9371 26.072 93.4343 25.9631C93.9362 25.8494 94.4405 25.7595 94.9471 25.6932C95.61 25.608 96.1474 25.544 96.5593 25.5014C96.976 25.4541 97.279 25.3759 97.4684 25.267C97.6625 25.1581 97.7596 24.9687 97.7596 24.6989V24.642C97.7596 23.9413 97.5678 23.3968 97.1843 23.0085C96.8055 22.6203 96.2302 22.4261 95.4585 22.4261C94.6583 22.4261 94.0309 22.6013 93.5763 22.9517C93.1218 23.3021 92.8022 23.6761 92.6175 24.0739L91.0266 23.5057C91.3107 22.8428 91.6895 22.3267 92.163 21.9574C92.6412 21.5833 93.1621 21.3229 93.7255 21.1761C94.2937 21.0246 94.8524 20.9489 95.4016 20.9489C95.752 20.9489 96.1545 20.9915 96.609 21.0767C97.0683 21.1572 97.511 21.3253 97.9371 21.581C98.368 21.8366 98.7255 22.2225 99.0096 22.7386C99.2937 23.2547 99.4357 23.946 99.4357 24.8125V32H97.7596V30.5227H97.6744C97.5607 30.7595 97.3713 31.0128 97.1062 31.2827C96.841 31.5526 96.4883 31.7822 96.0479 31.9716C95.6076 32.161 95.0702 32.2557 94.4357 32.2557ZM94.6914 30.75C95.3543 30.75 95.913 30.6198 96.3675 30.3594C96.8268 30.099 97.1725 29.7628 97.4045 29.3509C97.6412 28.9389 97.7596 28.5057 97.7596 28.0511V26.517C97.6886 26.6023 97.5323 26.6804 97.2908 26.7514C97.0541 26.8177 96.7795 26.8769 96.467 26.929C96.1592 26.9763 95.8585 27.0189 95.565 27.0568C95.2762 27.09 95.0418 27.1184 94.8619 27.142C94.4263 27.1989 94.0191 27.2912 93.6403 27.419C93.2662 27.5421 92.9632 27.7292 92.7312 27.9801C92.5039 28.2263 92.3903 28.5625 92.3903 28.9886C92.3903 29.571 92.6057 30.0114 93.0366 30.3097C93.4722 30.6032 94.0238 30.75 94.6914 30.75ZM93.3278 19.7841L92.021 19.7273C92.021 19.0028 92.2269 18.411 92.6388 17.9517C93.0555 17.4877 93.5692 17.2557 94.18 17.2557C94.4499 17.2557 94.689 17.303 94.8974 17.3977C95.1057 17.4877 95.3046 17.5919 95.494 17.7102C95.6834 17.8286 95.8775 17.9351 96.0763 18.0298C96.2799 18.1198 96.5096 18.1648 96.7653 18.1648C97.0352 18.1648 97.2624 18.0606 97.4471 17.8523C97.6365 17.6392 97.7312 17.3835 97.7312 17.0852L99.0096 17.1989C99.0096 17.9375 98.8013 18.5246 98.3846 18.9602C97.9727 19.3958 97.4613 19.6136 96.8505 19.6136C96.5238 19.6136 96.2539 19.5687 96.0408 19.4787C95.8278 19.384 95.6384 19.2775 95.4727 19.1591C95.3069 19.0407 95.1317 18.9366 94.9471 18.8466C94.7624 18.7519 94.5352 18.7045 94.2653 18.7045C93.9954 18.7045 93.7705 18.8111 93.5906 19.0241C93.4154 19.2325 93.3278 19.4858 93.3278 19.7841ZM106.927 32.2273C105.942 32.2273 105.078 31.9929 104.335 31.5241C103.596 31.0554 103.018 30.3996 102.602 29.5568C102.19 28.714 101.984 27.7292 101.984 26.6023C101.984 25.4659 102.19 24.474 102.602 23.6264C103.018 22.7789 103.596 22.1207 104.335 21.652C105.078 21.1832 105.942 20.9489 106.927 20.9489C107.912 20.9489 108.773 21.1832 109.512 21.652C110.255 22.1207 110.833 22.7789 111.245 23.6264C111.662 24.474 111.87 25.4659 111.87 26.6023C111.87 27.7292 111.662 28.714 111.245 29.5568C110.833 30.3996 110.255 31.0554 109.512 31.5241C108.773 31.9929 107.912 32.2273 106.927 32.2273ZM106.927 30.7216C107.675 30.7216 108.29 30.5298 108.773 30.1463C109.256 29.7628 109.614 29.2585 109.846 28.6335C110.078 28.0085 110.194 27.3314 110.194 26.6023C110.194 25.8731 110.078 25.1937 109.846 24.5639C109.614 23.9342 109.256 23.4252 108.773 23.0369C108.29 22.6487 107.675 22.4545 106.927 22.4545C106.179 22.4545 105.563 22.6487 105.08 23.0369C104.597 23.4252 104.24 23.9342 104.008 24.5639C103.776 25.1937 103.66 25.8731 103.66 26.6023C103.66 27.3314 103.776 28.0085 104.008 28.6335C104.24 29.2585 104.597 29.7628 105.08 30.1463C105.563 30.5298 106.179 30.7216 106.927 30.7216Z" fill="white"/>
<path d="M94.8134 69.9883C97.0751 72.25 97.0751 75.8917 94.8134 78.115L79.9017 93.0267L88.0284 128.255L82.6234 133.698L67.7501 105.217L52.8001 120.167L54.1801 129.635L50.0784 133.698L43.3317 121.508L31.1034 114.723L35.1667 110.583L44.7501 112.002L59.5851 97.1667L31.1034 82.1783L36.5467 76.7733L71.7751 84.9L86.6867 69.9883C88.8334 67.765 92.6667 67.765 94.8134 69.9883Z" fill="black"/>
<rect x="25" y="147" width="80" height="34" rx="10" fill="black"/>
<path d="M41.358 156.455L45.6761 168.699H45.8466L50.1648 156.455H52.0114L46.6705 171H44.8523L39.5114 156.455H41.358ZM57.4659 171.227C56.4811 171.227 55.617 170.993 54.8736 170.524C54.1349 170.055 53.5573 169.4 53.1406 168.557C52.7287 167.714 52.5227 166.729 52.5227 165.602C52.5227 164.466 52.7287 163.474 53.1406 162.626C53.5573 161.779 54.1349 161.121 54.8736 160.652C55.617 160.183 56.4811 159.949 57.4659 159.949C58.4508 159.949 59.3125 160.183 60.0511 160.652C60.7945 161.121 61.3722 161.779 61.7841 162.626C62.2008 163.474 62.4091 164.466 62.4091 165.602C62.4091 166.729 62.2008 167.714 61.7841 168.557C61.3722 169.4 60.7945 170.055 60.0511 170.524C59.3125 170.993 58.4508 171.227 57.4659 171.227ZM57.4659 169.722C58.214 169.722 58.8295 169.53 59.3125 169.146C59.7955 168.763 60.1529 168.259 60.3849 167.634C60.617 167.009 60.733 166.331 60.733 165.602C60.733 164.873 60.617 164.194 60.3849 163.564C60.1529 162.934 59.7955 162.425 59.3125 162.037C58.8295 161.649 58.214 161.455 57.4659 161.455C56.7178 161.455 56.1023 161.649 55.6193 162.037C55.1364 162.425 54.7789 162.934 54.5469 163.564C54.3149 164.194 54.1989 164.873 54.1989 165.602C54.1989 166.331 54.3149 167.009 54.5469 167.634C54.7789 168.259 55.1364 168.763 55.6193 169.146C56.1023 169.53 56.7178 169.722 57.4659 169.722ZM69.712 160.091V161.511H64.0586V160.091H69.712ZM65.7063 157.477H67.3825V167.875C67.3825 168.348 67.4511 168.704 67.5884 168.94C67.7305 169.172 67.9104 169.329 68.1282 169.409C68.3507 169.485 68.5851 169.523 68.8313 169.523C69.016 169.523 69.1675 169.513 69.2859 169.494C69.4042 169.471 69.4989 169.452 69.57 169.438L69.9109 170.943C69.7972 170.986 69.6386 171.028 69.435 171.071C69.2314 171.118 68.9734 171.142 68.6609 171.142C68.1874 171.142 67.7234 171.04 67.2688 170.837C66.819 170.633 66.445 170.323 66.1467 169.906C65.8531 169.49 65.7063 168.964 65.7063 168.33V157.477ZM75.4435 171.256C74.7522 171.256 74.1249 171.125 73.5614 170.865C72.998 170.6 72.5505 170.219 72.2191 169.722C71.8877 169.22 71.7219 168.614 71.7219 167.903C71.7219 167.278 71.8451 166.772 72.0913 166.384C72.3375 165.991 72.6665 165.683 73.0785 165.46C73.4904 165.238 73.945 165.072 74.4421 164.963C74.944 164.849 75.4483 164.759 75.9549 164.693C76.6178 164.608 77.1552 164.544 77.5671 164.501C77.9838 164.454 78.2868 164.376 78.4762 164.267C78.6703 164.158 78.7674 163.969 78.7674 163.699V163.642C78.7674 162.941 78.5756 162.397 78.1921 162.009C77.8133 161.62 77.238 161.426 76.4663 161.426C75.6661 161.426 75.0387 161.601 74.5842 161.952C74.1296 162.302 73.81 162.676 73.6254 163.074L72.0344 162.506C72.3185 161.843 72.6973 161.327 73.1708 160.957C73.649 160.583 74.1699 160.323 74.7333 160.176C75.3015 160.025 75.8602 159.949 76.4094 159.949C76.7598 159.949 77.1623 159.991 77.6168 160.077C78.0761 160.157 78.5188 160.325 78.945 160.581C79.3758 160.837 79.7333 161.223 80.0174 161.739C80.3015 162.255 80.4435 162.946 80.4435 163.812V171H78.7674V169.523H78.6822C78.5685 169.759 78.3791 170.013 78.114 170.283C77.8488 170.553 77.4961 170.782 77.0558 170.972C76.6154 171.161 76.078 171.256 75.4435 171.256ZM75.6992 169.75C76.3621 169.75 76.9208 169.62 77.3754 169.359C77.8346 169.099 78.1803 168.763 78.4123 168.351C78.649 167.939 78.7674 167.506 78.7674 167.051V165.517C78.6964 165.602 78.5401 165.68 78.2987 165.751C78.0619 165.818 77.7873 165.877 77.4748 165.929C77.167 165.976 76.8664 166.019 76.5728 166.057C76.284 166.09 76.0496 166.118 75.8697 166.142C75.4341 166.199 75.0269 166.291 74.6481 166.419C74.274 166.542 73.971 166.729 73.739 166.98C73.5117 167.226 73.3981 167.562 73.3981 167.989C73.3981 168.571 73.6135 169.011 74.0444 169.31C74.48 169.603 75.0316 169.75 75.6992 169.75ZM83.5028 171V160.091H85.1222V161.739H85.2358C85.4347 161.199 85.7945 160.761 86.3153 160.425C86.8362 160.089 87.4233 159.92 88.0767 159.92C88.1998 159.92 88.3537 159.923 88.5384 159.928C88.723 159.932 88.8627 159.939 88.9574 159.949V161.653C88.9006 161.639 88.7704 161.618 88.5668 161.589C88.3679 161.556 88.1572 161.54 87.9347 161.54C87.4044 161.54 86.9309 161.651 86.5142 161.874C86.1023 162.091 85.7756 162.394 85.5341 162.783C85.2973 163.166 85.179 163.604 85.179 164.097V171H83.5028Z" fill="white"/>
</svg>
