<svg width="130" height="203" viewBox="0 0 130 203" fill="none" xmlns="http://www.w3.org/2000/svg">
<rect width="130" height="203" rx="10" fill="#2638DB"/>
<rect x="8" y="12" width="114" height="178" rx="10" fill="#5A9AF7"/>
<path d="M65 64.2C55.24 64.2 45.8798 68.0771 38.9784 74.9785C32.0771 81.8798 28.2 91.24 28.2 101C28.2 110.76 32.0771 120.12 38.9784 127.022C45.8798 133.923 55.24 137.8 65 137.8C74.7599 137.8 84.1201 133.923 91.0215 127.022C97.9228 120.12 101.8 110.76 101.8 101C101.8 91.24 97.9228 81.8798 91.0215 74.9785C84.1201 68.0771 74.7599 64.2 65 64.2ZM51.6231 71.698L62.7091 78.1656V85.9856L49.9718 94.9648L42.7958 92.3566L39.9162 80.8014C43.06 76.9004 47.0679 73.7839 51.6231 71.698ZM32.9564 104.183L41.3606 96.7312L48.4722 99.3118L53.2792 114.446L49.981 119.382H38.5592C35.4197 114.879 33.4903 109.646 32.9564 104.183ZM57.5158 132.326L53.7668 121.994L57.0327 117.105H72.9809L76.2515 121.994L72.5025 132.321C67.5762 133.498 62.4421 133.502 57.5158 132.326ZM91.4408 119.382H80.042L76.7299 114.437L81.445 99.3164L88.6532 96.722L97.0435 104.183C96.5096 109.646 94.5802 114.879 91.4408 119.382ZM90.1068 80.8336L87.2271 92.3474L79.9408 94.9694L67.3046 85.9902V78.1702L78.3859 71.698C82.9491 73.7899 86.9622 76.9162 90.1068 80.829V80.8336Z" fill="black"/>
<path d="M24.7614 32V17.4545H33.5398V19.017H26.5227V23.9318H33.0852V25.4943H26.5227V30.4375H33.6534V32H24.7614ZM44.2145 23.5341L42.7088 23.9602C42.6141 23.7093 42.4744 23.4654 42.2898 23.2287C42.1098 22.9872 41.8636 22.7884 41.5511 22.6321C41.2386 22.4759 40.8385 22.3977 40.3509 22.3977C39.6832 22.3977 39.1269 22.5516 38.6818 22.8594C38.2415 23.1624 38.0213 23.5483 38.0213 24.017C38.0213 24.4337 38.1728 24.7628 38.4759 25.0043C38.7789 25.2457 39.2524 25.447 39.8963 25.608L41.5156 26.0057C42.491 26.2424 43.2178 26.6046 43.696 27.0923C44.1742 27.5753 44.4134 28.1979 44.4134 28.9602C44.4134 29.5852 44.2334 30.1439 43.8736 30.6364C43.5185 31.1288 43.0213 31.517 42.3821 31.8011C41.7429 32.0852 40.9995 32.2273 40.152 32.2273C39.0393 32.2273 38.1184 31.9858 37.3892 31.5028C36.66 31.0199 36.1984 30.3144 36.0043 29.3864L37.5952 28.9886C37.7467 29.5758 38.0331 30.0161 38.4545 30.3097C38.8807 30.6032 39.437 30.75 40.1236 30.75C40.9048 30.75 41.5251 30.5843 41.9844 30.2528C42.4484 29.9167 42.6804 29.5142 42.6804 29.0455C42.6804 28.6667 42.5478 28.3494 42.2827 28.0938C42.0175 27.8333 41.6103 27.6392 41.0611 27.5114L39.2429 27.0852C38.2438 26.8485 37.5099 26.4815 37.0412 25.9844C36.5772 25.4825 36.3452 24.8551 36.3452 24.1023C36.3452 23.4867 36.518 22.9422 36.8636 22.4688C37.214 21.9953 37.6899 21.6236 38.2912 21.3537C38.8973 21.0838 39.5838 20.9489 40.3509 20.9489C41.4304 20.9489 42.2779 21.1856 42.8935 21.6591C43.5137 22.1326 43.9541 22.7576 44.2145 23.5341ZM46.9364 36.0909V21.0909H48.5558V22.8239H48.7546C48.8777 22.6345 49.0482 22.393 49.266 22.0994C49.4885 21.8011 49.8058 21.536 50.2177 21.304C50.6344 21.0672 51.1978 20.9489 51.908 20.9489C52.8266 20.9489 53.6362 21.1785 54.337 21.6378C55.0378 22.0971 55.5846 22.7481 55.9776 23.5909C56.3706 24.4337 56.5671 25.428 56.5671 26.5739C56.5671 27.7292 56.3706 28.7306 55.9776 29.5781C55.5846 30.4209 55.0401 31.0743 54.3441 31.5384C53.6481 31.9976 52.8455 32.2273 51.9364 32.2273C51.2357 32.2273 50.6746 32.1113 50.2532 31.8793C49.8318 31.6425 49.5075 31.375 49.2802 31.0767C49.0529 30.7737 48.8777 30.5227 48.7546 30.3239H48.6126V36.0909H46.9364ZM48.5842 26.5455C48.5842 27.3693 48.7049 28.0961 48.9464 28.7259C49.1879 29.3509 49.5406 29.8409 50.0046 30.196C50.4686 30.5464 51.0368 30.7216 51.7092 30.7216C52.4099 30.7216 52.9947 30.5369 53.4634 30.1676C53.9369 29.7936 54.292 29.2917 54.5288 28.6619C54.7702 28.0275 54.891 27.322 54.891 26.5455C54.891 25.7784 54.7726 25.0871 54.5359 24.4716C54.3039 23.8513 53.9511 23.3613 53.4776 23.0014C53.0089 22.6368 52.4194 22.4545 51.7092 22.4545C51.0273 22.4545 50.4544 22.6274 49.9904 22.973C49.5264 23.3139 49.176 23.7921 48.9393 24.4077C48.7025 25.0185 48.5842 25.7311 48.5842 26.5455ZM63.5558 32.2273C62.5709 32.2273 61.7068 31.9929 60.9634 31.5241C60.2248 31.0554 59.6471 30.3996 59.2305 29.5568C58.8185 28.714 58.6126 27.7292 58.6126 26.6023C58.6126 25.4659 58.8185 24.474 59.2305 23.6264C59.6471 22.7789 60.2248 22.1207 60.9634 21.652C61.7068 21.1832 62.5709 20.9489 63.5558 20.9489C64.5406 20.9489 65.4023 21.1832 66.141 21.652C66.8844 22.1207 67.462 22.7789 67.8739 23.6264C68.2906 24.474 68.4989 25.4659 68.4989 26.6023C68.4989 27.7292 68.2906 28.714 67.8739 29.5568C67.462 30.3996 66.8844 31.0554 66.141 31.5241C65.4023 31.9929 64.5406 32.2273 63.5558 32.2273ZM63.5558 30.7216C64.3039 30.7216 64.9194 30.5298 65.4023 30.1463C65.8853 29.7628 66.2428 29.2585 66.4748 28.6335C66.7068 28.0085 66.8228 27.3314 66.8228 26.6023C66.8228 25.8731 66.7068 25.1937 66.4748 24.5639C66.2428 23.9342 65.8853 23.4252 65.4023 23.0369C64.9194 22.6487 64.3039 22.4545 63.5558 22.4545C62.8076 22.4545 62.1921 22.6487 61.7092 23.0369C61.2262 23.4252 60.8687 23.9342 60.6367 24.5639C60.4047 25.1937 60.2887 25.8731 60.2887 26.6023C60.2887 27.3314 60.4047 28.0085 60.6367 28.6335C60.8687 29.2585 61.2262 29.7628 61.7092 30.1463C62.1921 30.5298 62.8076 30.7216 63.5558 30.7216ZM71.0575 32V21.0909H72.6768V22.7386H72.7905C72.9893 22.1989 73.3492 21.7609 73.87 21.4247C74.3909 21.0885 74.978 20.9205 75.6314 20.9205C75.7545 20.9205 75.9084 20.9228 76.093 20.9276C76.2777 20.9323 76.4174 20.9394 76.5121 20.9489V22.6534C76.4553 22.6392 76.325 22.6179 76.1214 22.5895C75.9226 22.5563 75.7119 22.5398 75.4893 22.5398C74.959 22.5398 74.4856 22.651 74.0689 22.8736C73.657 23.0914 73.3303 23.3944 73.0888 23.7827C72.852 24.1662 72.7337 24.6042 72.7337 25.0966V32H71.0575ZM83.9268 21.0909V22.5114H78.2734V21.0909H83.9268ZM79.9212 18.4773H81.5973V28.875C81.5973 29.3485 81.666 29.7036 81.8033 29.9403C81.9453 30.1723 82.1252 30.3286 82.343 30.4091C82.5656 30.4848 82.8 30.5227 83.0462 30.5227C83.2308 30.5227 83.3823 30.5133 83.5007 30.4943C83.6191 30.4706 83.7138 30.4517 83.7848 30.4375L84.1257 31.9432C84.0121 31.9858 83.8535 32.0284 83.6499 32.071C83.4463 32.1184 83.1882 32.142 82.8757 32.142C82.4022 32.142 81.9382 32.0402 81.4837 31.8366C81.0339 31.633 80.6598 31.3229 80.3615 30.9062C80.0679 30.4896 79.9212 29.964 79.9212 29.3295V18.4773ZM90.9048 32.2273C89.8537 32.2273 88.947 31.9953 88.1847 31.5312C87.4271 31.0625 86.8423 30.4091 86.4304 29.571C86.0232 28.7282 85.8196 27.7481 85.8196 26.6307C85.8196 25.5133 86.0232 24.5284 86.4304 23.6761C86.8423 22.8191 87.4152 22.1515 88.1491 21.6733C88.8878 21.1903 89.7495 20.9489 90.7344 20.9489C91.3026 20.9489 91.8636 21.0436 92.4176 21.233C92.9716 21.4223 93.4759 21.7301 93.9304 22.1562C94.3849 22.5777 94.7472 23.1364 95.017 23.8324C95.2869 24.5284 95.4219 25.3854 95.4219 26.4034V27.1136H87.0128V25.6648H93.7173C93.7173 25.0492 93.5942 24.5 93.348 24.017C93.1065 23.5341 92.7609 23.1529 92.3111 22.8736C91.866 22.5942 91.3404 22.4545 90.7344 22.4545C90.0668 22.4545 89.4891 22.6203 89.0014 22.9517C88.5185 23.2784 88.1468 23.7045 87.8864 24.2301C87.6259 24.7557 87.4957 25.3191 87.4957 25.9205V26.8864C87.4957 27.7102 87.6378 28.4086 87.9219 28.9815C88.2107 29.5497 88.6108 29.983 89.1222 30.2812C89.6335 30.5748 90.2277 30.7216 90.9048 30.7216C91.3452 30.7216 91.7429 30.66 92.098 30.5369C92.4579 30.4091 92.768 30.2197 93.0284 29.9688C93.2888 29.7131 93.4901 29.3958 93.6321 29.017L95.2514 29.4716C95.081 30.0208 94.7945 30.5038 94.392 30.9205C93.9896 31.3324 93.4924 31.6544 92.9006 31.8864C92.3087 32.1136 91.6435 32.2273 90.9048 32.2273ZM105.699 23.5341L104.193 23.9602C104.098 23.7093 103.959 23.4654 103.774 23.2287C103.594 22.9872 103.348 22.7884 103.036 22.6321C102.723 22.4759 102.323 22.3977 101.835 22.3977C101.168 22.3977 100.611 22.5516 100.166 22.8594C99.7259 23.1624 99.5057 23.5483 99.5057 24.017C99.5057 24.4337 99.6572 24.7628 99.9602 25.0043C100.263 25.2457 100.737 25.447 101.381 25.608L103 26.0057C103.975 26.2424 104.702 26.6046 105.18 27.0923C105.659 27.5753 105.898 28.1979 105.898 28.9602C105.898 29.5852 105.718 30.1439 105.358 30.6364C105.003 31.1288 104.506 31.517 103.866 31.8011C103.227 32.0852 102.484 32.2273 101.636 32.2273C100.524 32.2273 99.6027 31.9858 98.8736 31.5028C98.1444 31.0199 97.6828 30.3144 97.4886 29.3864L99.0795 28.9886C99.2311 29.5758 99.5175 30.0161 99.9389 30.3097C100.365 30.6032 100.921 30.75 101.608 30.75C102.389 30.75 103.009 30.5843 103.469 30.2528C103.933 29.9167 104.165 29.5142 104.165 29.0455C104.165 28.6667 104.032 28.3494 103.767 28.0938C103.502 27.8333 103.095 27.6392 102.545 27.5114L100.727 27.0852C99.7282 26.8485 98.9943 26.4815 98.5256 25.9844C98.0616 25.4825 97.8295 24.8551 97.8295 24.1023C97.8295 23.4867 98.0024 22.9422 98.348 22.4688C98.6984 21.9953 99.1742 21.6236 99.7756 21.3537C100.382 21.0838 101.068 20.9489 101.835 20.9489C102.915 20.9489 103.762 21.1856 104.378 21.6591C104.998 22.1326 105.438 22.7576 105.699 23.5341Z" fill="white"/>
<rect x="27" y="147" width="80" height="34" rx="10" fill="black"/>
<path d="M43.358 156.455L47.6761 168.699H47.8466L52.1648 156.455H54.0114L48.6705 171H46.8523L41.5114 156.455H43.358ZM59.4659 171.227C58.4811 171.227 57.617 170.993 56.8736 170.524C56.1349 170.055 55.5573 169.4 55.1406 168.557C54.7287 167.714 54.5227 166.729 54.5227 165.602C54.5227 164.466 54.7287 163.474 55.1406 162.626C55.5573 161.779 56.1349 161.121 56.8736 160.652C57.617 160.183 58.4811 159.949 59.4659 159.949C60.4508 159.949 61.3125 160.183 62.0511 160.652C62.7945 161.121 63.3722 161.779 63.7841 162.626C64.2008 163.474 64.4091 164.466 64.4091 165.602C64.4091 166.729 64.2008 167.714 63.7841 168.557C63.3722 169.4 62.7945 170.055 62.0511 170.524C61.3125 170.993 60.4508 171.227 59.4659 171.227ZM59.4659 169.722C60.214 169.722 60.8295 169.53 61.3125 169.146C61.7955 168.763 62.1529 168.259 62.3849 167.634C62.617 167.009 62.733 166.331 62.733 165.602C62.733 164.873 62.617 164.194 62.3849 163.564C62.1529 162.934 61.7955 162.425 61.3125 162.037C60.8295 161.649 60.214 161.455 59.4659 161.455C58.7178 161.455 58.1023 161.649 57.6193 162.037C57.1364 162.425 56.7789 162.934 56.5469 163.564C56.3149 164.194 56.1989 164.873 56.1989 165.602C56.1989 166.331 56.3149 167.009 56.5469 167.634C56.7789 168.259 57.1364 168.763 57.6193 169.146C58.1023 169.53 58.7178 169.722 59.4659 169.722ZM71.712 160.091V161.511H66.0586V160.091H71.712ZM67.7063 157.477H69.3825V167.875C69.3825 168.348 69.4511 168.704 69.5884 168.94C69.7305 169.172 69.9104 169.329 70.1282 169.409C70.3507 169.485 70.5851 169.523 70.8313 169.523C71.016 169.523 71.1675 169.513 71.2859 169.494C71.4042 169.471 71.4989 169.452 71.57 169.438L71.9109 170.943C71.7972 170.986 71.6386 171.028 71.435 171.071C71.2314 171.118 70.9734 171.142 70.6609 171.142C70.1874 171.142 69.7234 171.04 69.2688 170.837C68.819 170.633 68.445 170.323 68.1467 169.906C67.8531 169.49 67.7063 168.964 67.7063 168.33V157.477ZM77.4435 171.256C76.7522 171.256 76.1249 171.125 75.5614 170.865C74.998 170.6 74.5505 170.219 74.2191 169.722C73.8877 169.22 73.7219 168.614 73.7219 167.903C73.7219 167.278 73.8451 166.772 74.0913 166.384C74.3375 165.991 74.6665 165.683 75.0785 165.46C75.4904 165.238 75.945 165.072 76.4421 164.963C76.944 164.849 77.4483 164.759 77.9549 164.693C78.6178 164.608 79.1552 164.544 79.5671 164.501C79.9838 164.454 80.2868 164.376 80.4762 164.267C80.6703 164.158 80.7674 163.969 80.7674 163.699V163.642C80.7674 162.941 80.5756 162.397 80.1921 162.009C79.8133 161.62 79.238 161.426 78.4663 161.426C77.6661 161.426 77.0387 161.601 76.5842 161.952C76.1296 162.302 75.81 162.676 75.6254 163.074L74.0344 162.506C74.3185 161.843 74.6973 161.327 75.1708 160.957C75.649 160.583 76.1699 160.323 76.7333 160.176C77.3015 160.025 77.8602 159.949 78.4094 159.949C78.7598 159.949 79.1623 159.991 79.6168 160.077C80.0761 160.157 80.5188 160.325 80.945 160.581C81.3758 160.837 81.7333 161.223 82.0174 161.739C82.3015 162.255 82.4435 162.946 82.4435 163.812V171H80.7674V169.523H80.6822C80.5685 169.759 80.3791 170.013 80.114 170.283C79.8488 170.553 79.4961 170.782 79.0558 170.972C78.6154 171.161 78.078 171.256 77.4435 171.256ZM77.6992 169.75C78.3621 169.75 78.9208 169.62 79.3754 169.359C79.8346 169.099 80.1803 168.763 80.4123 168.351C80.649 167.939 80.7674 167.506 80.7674 167.051V165.517C80.6964 165.602 80.5401 165.68 80.2987 165.751C80.0619 165.818 79.7873 165.877 79.4748 165.929C79.167 165.976 78.8664 166.019 78.5728 166.057C78.284 166.09 78.0496 166.118 77.8697 166.142C77.4341 166.199 77.0269 166.291 76.6481 166.419C76.274 166.542 75.971 166.729 75.739 166.98C75.5117 167.226 75.3981 167.562 75.3981 167.989C75.3981 168.571 75.6135 169.011 76.0444 169.31C76.48 169.603 77.0316 169.75 77.6992 169.75ZM85.5028 171V160.091H87.1222V161.739H87.2358C87.4347 161.199 87.7945 160.761 88.3153 160.425C88.8362 160.089 89.4233 159.92 90.0767 159.92C90.1998 159.92 90.3537 159.923 90.5384 159.928C90.723 159.932 90.8627 159.939 90.9574 159.949V161.653C90.9006 161.639 90.7704 161.618 90.5668 161.589C90.3679 161.556 90.1572 161.54 89.9347 161.54C89.4044 161.54 88.9309 161.651 88.5142 161.874C88.1023 162.091 87.7756 162.394 87.5341 162.783C87.2973 163.166 87.179 163.604 87.179 164.097V171H85.5028Z" fill="white"/>
</svg>
